<svg width="239" height="56" viewBox="0 0 239 56" fill="none" xmlns="http://www.w3.org/2000/svg">
<g clip-path="url(#clip0_121_965)"><path fill-rule="evenodd" clip-rule="evenodd" d="M54.5551 0.835706V19.582C54.4606 23.6218 54.8666 27.0666 53.9964 29.7561C52.5894 34.1076 50.352 36.4015 47.0578 39.6097C44.3716 42.2256 41.7272 44.8838 39.0821 47.5409C36.988 49.6439 34.6697 52.0783 32.6212 54.1098C31.9241 54.8016 31.5042 55.1688 31.0261 55.6319V33.8418C31.0573 33.2925 31.0829 32.9903 31.1857 32.5601C31.3665 31.8034 31.4823 31.0299 31.7442 30.3166C32.5668 28.0737 33.5727 26.3576 34.8548 24.6289C35.918 23.5877 36.9019 22.5457 37.9653 21.5045C38.916 20.4545 39.8385 19.6231 40.7565 18.7006C42.1126 17.3124 43.4686 15.9232 44.8246 14.535C47.551 11.7965 49.5153 10.2196 49.8494 5.64254C46.9623 5.57994 45.0301 6.73039 43.4686 8.04573C43.057 8.39279 42.5998 8.94209 42.1924 9.32744C41.9703 9.53763 41.7362 9.79172 41.7139 9.80808C41.5852 9.90242 41.024 10.504 40.8364 10.6895C40.0855 11.4326 39.6171 11.839 38.7629 12.7722C38.4169 13.0927 37.9918 13.5733 37.6458 13.8937C36.8569 14.6868 36.1248 15.4585 35.3334 16.217C34.9344 16.6444 34.4558 17.0718 34.0568 17.4987C32.6696 18.892 31.2894 20.439 29.6701 21.5848C27.8323 22.8848 25.7382 23.7708 23.2099 24.3085C21.5115 24.6695 17.9382 24.549 15.3936 24.549H0C1.17886 23.4149 6.87367 17.6445 7.7363 16.778C10.5549 13.9474 13.3725 11.1164 16.1911 8.28629C18.899 5.56593 21.3307 2.89932 25.4429 1.5569C28.3238 0.616173 32.4082 0.835706 36.2102 0.835706H54.5551Z" fill="#00B1FF">
</path>
<path d="M63.5303 29.3397V29.9086H61.6358V36.1961H60.9522V29.9086H59.0479V29.3397H63.5303ZM67.1489 30.7423C67.5524 30.7423 67.9137 30.8274 68.2329 30.9974C68.5583 31.1674 68.8122 31.429 68.9946 31.7821C69.1833 32.1287 69.2778 32.5537 69.2778 33.0572V36.1961H68.604V33.1357C68.604 32.5537 68.4575 32.109 68.1645 31.8017C67.8778 31.4944 67.484 31.3407 66.9828 31.3407C66.4684 31.3407 66.0582 31.5042 65.7524 31.8311C65.4461 32.1581 65.2934 32.6387 65.2934 33.273V36.1961H64.6098V28.9375H65.2934V31.7527C65.4625 31.4322 65.7098 31.1837 66.0356 31.0072C66.3676 30.8306 66.7387 30.7423 67.1489 30.7423ZM75.614 33.2436C75.614 33.479 75.6074 33.6588 75.5945 33.7831H71.1706C71.1901 34.1885 71.2878 34.5351 71.4636 34.8229C71.6394 35.1106 71.8702 35.3297 72.1569 35.48C72.4433 35.6239 72.7558 35.6958 73.0944 35.6958C73.537 35.6958 73.9081 35.5879 74.2077 35.3722C74.5136 35.1564 74.7156 34.8653 74.8132 34.4992H75.5359C75.4054 35.0223 75.1257 35.4506 74.696 35.7841C74.2726 36.111 73.739 36.2746 73.0944 36.2746C72.5929 36.2746 72.1437 36.1635 71.7468 35.9411C71.3495 35.7122 71.037 35.3918 70.8093 34.9798C70.5878 34.5613 70.4772 34.0741 70.4772 33.5183C70.4772 32.9624 70.5878 32.4753 70.8093 32.0567C71.0304 31.6382 71.3398 31.3178 71.737 31.0955C72.1339 30.8731 72.5866 30.762 73.0944 30.762C73.6023 30.762 74.0449 30.8731 74.4226 31.0955C74.8066 31.3178 75.0996 31.6186 75.3015 31.9979C75.5097 32.3706 75.614 32.7859 75.614 33.2436ZM74.9206 33.224C74.9269 32.8251 74.8456 32.4851 74.6765 32.2039C74.5136 31.9227 74.289 31.7102 74.0027 31.5663C73.716 31.4224 73.4035 31.3505 73.0651 31.3505C72.5573 31.3505 72.1241 31.514 71.7663 31.8409C71.4081 32.1679 71.2097 32.6289 71.1706 33.224H74.9206ZM81.6147 36.2648C81.1655 36.2648 80.7682 36.1863 80.4233 36.0293C80.0846 35.8724 79.8178 35.6534 79.6225 35.3722C79.4272 35.091 79.3229 34.7771 79.31 34.4305H80.0326C80.0651 34.764 80.2116 35.0583 80.4721 35.3133C80.7326 35.5618 81.1135 35.686 81.6147 35.686C82.0768 35.686 82.4416 35.5683 82.7084 35.3329C82.9819 35.091 83.1186 34.7869 83.1186 34.4207C83.1186 34.1264 83.0436 33.891 82.894 33.7144C82.7444 33.5313 82.5588 33.3973 82.3373 33.3123C82.1159 33.2207 81.81 33.1227 81.4194 33.018C80.9635 32.8938 80.6022 32.7728 80.3354 32.6551C80.0686 32.5374 79.8405 32.3543 79.6518 32.1058C79.4631 31.8573 79.3686 31.5205 79.3686 31.0955C79.3686 30.7423 79.4596 30.4285 79.642 30.1538C79.8244 29.8726 80.0815 29.6536 80.4135 29.4966C80.7455 29.3397 81.1264 29.2612 81.5561 29.2612C82.1877 29.2612 82.6955 29.4181 83.0795 29.732C83.4702 30.0394 83.6948 30.4383 83.7534 30.9287H83.0112C82.9655 30.6475 82.8127 30.399 82.5522 30.1832C82.2917 29.9609 81.9401 29.8497 81.4975 29.8497C81.0873 29.8497 80.7455 29.9609 80.4721 30.1832C80.1987 30.399 80.0619 30.6966 80.0619 31.0758C80.0619 31.3636 80.1369 31.5957 80.2865 31.7723C80.4362 31.9488 80.6217 32.0829 80.8432 32.1744C81.0709 32.266 81.3772 32.3641 81.7612 32.4687C82.2038 32.593 82.562 32.7172 82.8354 32.8415C83.1088 32.9592 83.3401 33.1423 83.5288 33.3907C83.7175 33.6392 83.812 33.9727 83.812 34.3913C83.812 34.7117 83.7272 35.0158 83.5581 35.3035C83.3889 35.5912 83.1381 35.8234 82.8061 35.9999C82.4741 36.1765 82.0768 36.2648 81.6147 36.2648ZM89.9574 33.2436C89.9574 33.479 89.9508 33.6588 89.9379 33.7831H85.514C85.5335 34.1885 85.6312 34.5351 85.807 34.8229C85.9827 35.1106 86.2136 35.3297 86.5003 35.48C86.7867 35.6239 87.0992 35.6958 87.4378 35.6958C87.8804 35.6958 88.2515 35.5879 88.5511 35.3722C88.857 35.1564 89.0589 34.8653 89.1566 34.4992H89.8793C89.7488 35.0223 89.4691 35.4506 89.0394 35.7841C88.616 36.111 88.0824 36.2746 87.4378 36.2746C86.9363 36.2746 86.4871 36.1635 86.0902 35.9411C85.6929 35.7122 85.3804 35.3918 85.1527 34.9798C84.9312 34.5613 84.8206 34.0741 84.8206 33.5183C84.8206 32.9624 84.9312 32.4753 85.1527 32.0567C85.3738 31.6382 85.6831 31.3178 86.0804 31.0955C86.4773 30.8731 86.93 30.762 87.4378 30.762C87.9457 30.762 88.3883 30.8731 88.766 31.0955C89.15 31.3178 89.443 31.6186 89.6449 31.9979C89.8531 32.3706 89.9574 32.7859 89.9574 33.2436ZM89.264 33.224C89.2703 32.8251 89.189 32.4851 89.0199 32.2039C88.857 31.9227 88.6324 31.7102 88.3461 31.5663C88.0594 31.4224 87.7469 31.3505 87.4085 31.3505C86.9007 31.3505 86.4675 31.514 86.1097 31.8409C85.7515 32.1679 85.5531 32.6289 85.514 33.224H89.264ZM90.8956 33.5183C90.8956 32.9624 91.0062 32.4785 91.2276 32.0665C91.4488 31.648 91.755 31.3276 92.1456 31.1053C92.5362 30.8764 92.982 30.762 93.4835 30.762C94.141 30.762 94.6812 30.9255 95.1046 31.2524C95.5343 31.5794 95.8109 32.0241 95.9347 32.5864H95.2023C95.1109 32.2006 94.9124 31.8998 94.6066 31.684C94.307 31.4617 93.9327 31.3505 93.4835 31.3505C93.1253 31.3505 92.8031 31.4322 92.5167 31.5957C92.23 31.7592 92.0023 32.0044 91.8331 32.3314C91.6702 32.6518 91.589 33.0474 91.589 33.5183C91.589 33.9891 91.6702 34.388 91.8331 34.715C92.0023 35.0419 92.23 35.2871 92.5167 35.4506C92.8031 35.6141 93.1253 35.6958 93.4835 35.6958C93.9327 35.6958 94.307 35.5879 94.6066 35.3722C94.9124 35.1498 95.1109 34.8425 95.2023 34.4501H95.9347C95.8109 34.9994 95.5343 35.4408 95.1046 35.7743C94.6749 36.1078 94.1343 36.2746 93.4835 36.2746C92.982 36.2746 92.5362 36.1635 92.1456 35.9411C91.755 35.7122 91.4488 35.3918 91.2276 34.9798C91.0062 34.5613 90.8956 34.0741 90.8956 33.5183ZM101.816 30.8404V36.1961H101.133V35.2544C100.976 35.5879 100.736 35.843 100.41 36.0195C100.084 36.1961 99.72 36.2844 99.3161 36.2844C98.6782 36.2844 98.1575 36.0882 97.7536 35.6958C97.35 35.2969 97.1481 34.7215 97.1481 33.9695V30.8404H97.8219V33.891C97.8219 34.473 97.9653 34.9177 98.2516 35.225C98.5446 35.5323 98.9419 35.686 99.443 35.686C99.9575 35.686 100.368 35.5225 100.674 35.1956C100.98 34.8686 101.133 34.388 101.133 33.7537V30.8404H101.816ZM104.06 31.7919C104.21 31.4584 104.438 31.2001 104.744 31.017C105.057 30.8339 105.437 30.7423 105.887 30.7423V31.4584H105.701C105.206 31.4584 104.809 31.5925 104.51 31.8606C104.21 32.1287 104.06 32.5766 104.06 33.2044V36.1961H103.377V30.8404H104.06V31.7919ZM111.739 33.2436C111.739 33.479 111.733 33.6588 111.72 33.7831H107.296C107.316 34.1885 107.413 34.5351 107.589 34.8229C107.765 35.1106 107.996 35.3297 108.282 35.48C108.569 35.6239 108.881 35.6958 109.22 35.6958C109.663 35.6958 110.034 35.5879 110.333 35.3722C110.639 35.1564 110.841 34.8653 110.939 34.4992H111.661C111.531 35.0223 111.251 35.4506 110.821 35.7841C110.398 36.111 109.864 36.2746 109.22 36.2746C108.718 36.2746 108.269 36.1635 107.872 35.9411C107.475 35.7122 107.162 35.3918 106.935 34.9798C106.713 34.5613 106.603 34.0741 106.603 33.5183C106.603 32.9624 106.713 32.4753 106.935 32.0567C107.156 31.6382 107.465 31.3178 107.862 31.0955C108.259 30.8731 108.712 30.762 109.22 30.762C109.728 30.762 110.17 30.8731 110.548 31.0955C110.932 31.3178 111.225 31.6186 111.427 31.9979C111.635 32.3706 111.739 32.7859 111.739 33.2436ZM111.046 33.224C111.052 32.8251 110.971 32.4851 110.802 32.2039C110.639 31.9227 110.414 31.7102 110.128 31.5663C109.841 31.4224 109.529 31.3505 109.191 31.3505C108.683 31.3505 108.25 31.514 107.892 31.8409C107.534 32.1679 107.335 32.6289 107.296 33.224H111.046ZM118.863 32.6551C119.248 32.727 119.573 32.9232 119.84 33.2436C120.107 33.5641 120.24 33.9368 120.24 34.3618C120.24 34.7084 120.152 35.0223 119.977 35.3035C119.807 35.5781 119.557 35.7972 119.225 35.9607C118.893 36.1176 118.496 36.1961 118.033 36.1961H115.67V29.3397H117.965C118.655 29.3397 119.179 29.4999 119.537 29.8203C119.902 30.1407 120.084 30.556 120.084 31.066C120.084 31.4911 119.97 31.8377 119.742 32.1058C119.514 32.3674 119.221 32.5504 118.863 32.6551ZM116.353 32.3706H117.945C118.408 32.3706 118.762 32.2627 119.01 32.0469C119.264 31.8246 119.391 31.5205 119.391 31.1347C119.391 30.7554 119.264 30.4579 119.01 30.2421C118.762 30.0263 118.398 29.9184 117.916 29.9184H116.353V32.3706ZM117.984 35.6174C118.479 35.6174 118.863 35.4997 119.137 35.2643C119.417 35.0288 119.557 34.7051 119.557 34.2932C119.557 33.8812 119.41 33.5542 119.117 33.3123C118.831 33.0638 118.443 32.9395 117.955 32.9395H116.353V35.6174H117.984ZM121.184 33.5085C121.184 32.9592 121.292 32.4785 121.507 32.0665C121.728 31.648 122.031 31.3276 122.415 31.1053C122.805 30.8764 123.245 30.762 123.733 30.762C124.241 30.762 124.677 30.8797 125.042 31.1151C125.413 31.3505 125.68 31.6513 125.843 32.0175V30.8404H126.526V36.1961H125.843V35.0092C125.673 35.3754 125.403 35.6795 125.032 35.9215C124.668 36.1569 124.231 36.2746 123.723 36.2746C123.242 36.2746 122.805 36.16 122.415 35.9313C122.031 35.7024 121.728 35.3787 121.507 34.9602C121.292 34.5416 121.184 34.0578 121.184 33.5085ZM125.843 33.5183C125.843 33.0867 125.755 32.7074 125.579 32.3804C125.403 32.0535 125.162 31.8017 124.856 31.6251C124.557 31.4486 124.225 31.3603 123.86 31.3603C123.483 31.3603 123.144 31.4453 122.844 31.6153C122.545 31.7853 122.307 32.0339 122.132 32.3608C121.962 32.6812 121.878 33.0638 121.878 33.5085C121.878 33.9466 121.962 34.3324 122.132 34.6659C122.307 34.9929 122.545 35.2446 122.844 35.4212C123.144 35.5912 123.483 35.6762 123.86 35.6762C124.225 35.6762 124.557 35.5879 124.856 35.4114C125.162 35.2348 125.403 34.983 125.579 34.6561C125.755 34.3291 125.843 33.9499 125.843 33.5183ZM127.774 33.5183C127.774 32.9624 127.885 32.4785 128.106 32.0665C128.328 31.648 128.634 31.3276 129.024 31.1053C129.415 30.8764 129.861 30.762 130.362 30.762C131.02 30.762 131.56 30.9255 131.983 31.2524C132.413 31.5794 132.69 32.0241 132.814 32.5864H132.081C131.99 32.2006 131.791 31.8998 131.485 31.684C131.186 31.4617 130.812 31.3505 130.362 31.3505C130.004 31.3505 129.682 31.4322 129.396 31.5957C129.109 31.7592 128.881 32.0044 128.712 32.3314C128.549 32.6518 128.468 33.0474 128.468 33.5183C128.468 33.9891 128.549 34.388 128.712 34.715C128.881 35.0419 129.109 35.2871 129.396 35.4506C129.682 35.6141 130.004 35.6958 130.362 35.6958C130.812 35.6958 131.186 35.5879 131.485 35.3722C131.791 35.1498 131.99 34.8425 132.081 34.4501H132.814C132.69 34.9994 132.413 35.4408 131.983 35.7743C131.554 36.1078 131.013 36.2746 130.362 36.2746C129.861 36.2746 129.415 36.1635 129.024 35.9411C128.634 35.7122 128.328 35.3918 128.106 34.9798C127.885 34.5613 127.774 34.0741 127.774 33.5183ZM136.957 36.1961L134.76 33.7929V36.1961H134.076V28.9375H134.76V33.2338L136.908 30.8404H137.865L135.336 33.5085L137.885 36.1961H136.957ZM143.592 33.2436C143.592 33.479 143.586 33.6588 143.573 33.7831H139.149C139.169 34.1885 139.266 34.5351 139.442 34.8229C139.618 35.1106 139.849 35.3297 140.135 35.48C140.422 35.6239 140.734 35.6958 141.073 35.6958C141.515 35.6958 141.887 35.5879 142.186 35.3722C142.492 35.1564 142.694 34.8653 142.792 34.4992H143.514C143.384 35.0223 143.104 35.4506 142.674 35.7841C142.251 36.111 141.717 36.2746 141.073 36.2746C140.571 36.2746 140.122 36.1635 139.725 35.9411C139.328 35.7122 139.015 35.3918 138.788 34.9798C138.566 34.5613 138.456 34.0741 138.456 33.5183C138.456 32.9624 138.566 32.4753 138.788 32.0567C139.009 31.6382 139.318 31.3178 139.715 31.0955C140.112 30.8731 140.565 30.762 141.073 30.762C141.581 30.762 142.023 30.8731 142.401 31.0955C142.785 31.3178 143.078 31.6186 143.28 31.9979C143.488 32.3706 143.592 32.7859 143.592 33.2436ZM142.899 33.224C142.905 32.8251 142.824 32.4851 142.655 32.2039C142.492 31.9227 142.267 31.7102 141.981 31.5663C141.694 31.4224 141.382 31.3505 141.044 31.3505C140.536 31.3505 140.103 31.514 139.745 31.8409C139.387 32.1679 139.188 32.6289 139.149 33.224H142.899ZM147.343 30.7423C147.981 30.7423 148.502 30.9418 148.906 31.3407C149.309 31.733 149.511 32.3052 149.511 33.0572V36.1961H148.837V33.1357C148.837 32.5537 148.691 32.109 148.398 31.8017C148.111 31.4944 147.717 31.3407 147.216 31.3407C146.702 31.3407 146.292 31.5042 145.986 31.8311C145.68 32.1581 145.527 32.6387 145.527 33.273V36.1961H144.843V30.8404H145.527V31.7527C145.696 31.4257 145.94 31.1772 146.259 31.0072C146.578 30.8306 146.939 30.7423 147.343 30.7423ZM150.711 33.5085C150.711 32.9592 150.821 32.4785 151.043 32.0665C151.264 31.648 151.567 31.3276 151.951 31.1053C152.341 30.8764 152.781 30.762 153.269 30.762C153.738 30.762 154.161 30.8764 154.539 31.1053C154.916 31.3341 155.193 31.6317 155.369 31.9979V28.9375H156.052V36.1961H155.369V34.9994C155.206 35.3721 154.939 35.6795 154.568 35.9215C154.197 36.1569 153.761 36.2746 153.259 36.2746C152.771 36.2746 152.332 36.16 151.941 35.9313C151.557 35.7024 151.254 35.3787 151.033 34.9602C150.818 34.5416 150.711 34.0578 150.711 33.5085ZM155.369 33.5183C155.369 33.0867 155.281 32.7074 155.105 32.3804C154.929 32.0535 154.688 31.8017 154.383 31.6251C154.083 31.4486 153.751 31.3603 153.386 31.3603C153.009 31.3603 152.67 31.4453 152.371 31.6153C152.071 31.7853 151.834 32.0339 151.658 32.3608C151.488 32.6812 151.404 33.0638 151.404 33.5085C151.404 33.9466 151.488 34.3324 151.658 34.6659C151.834 34.9929 152.071 35.2446 152.371 35.4212C152.67 35.5912 153.009 35.6762 153.386 35.6762C153.751 35.6762 154.083 35.5879 154.383 35.4114C154.688 35.2348 154.929 34.983 155.105 34.6561C155.281 34.3291 155.369 33.9499 155.369 33.5183ZM163.984 29.3397V29.9086H160.976V32.4687H163.516V33.0376H160.976V36.1961H160.293V29.3397H163.984ZM167.443 36.2746C166.942 36.2746 166.489 36.1635 166.085 35.9411C165.688 35.7122 165.372 35.3918 165.138 34.9798C164.91 34.5613 164.796 34.0741 164.796 33.5183C164.796 32.9624 164.913 32.4785 165.148 32.0665C165.382 31.648 165.701 31.3276 166.105 31.1053C166.509 30.8764 166.961 30.762 167.462 30.762C167.964 30.762 168.416 30.8764 168.82 31.1053C169.23 31.3276 169.549 31.648 169.777 32.0665C170.011 32.4785 170.128 32.9624 170.128 33.5183C170.128 34.0676 170.011 34.5515 169.777 34.97C169.542 35.3885 169.22 35.7122 168.81 35.9411C168.4 36.1635 167.944 36.2746 167.443 36.2746ZM167.443 35.6762C167.794 35.6762 168.12 35.5978 168.419 35.4408C168.719 35.2773 168.96 35.0354 169.142 34.715C169.331 34.388 169.425 33.9891 169.425 33.5183C169.425 33.0474 169.334 32.6518 169.152 32.3314C168.97 32.0044 168.729 31.7625 168.429 31.6055C168.13 31.442 167.804 31.3603 167.453 31.3603C167.101 31.3603 166.776 31.442 166.476 31.6055C166.177 31.7625 165.936 32.0044 165.753 32.3314C165.578 32.6518 165.49 33.0474 165.49 33.5183C165.49 33.9891 165.578 34.388 165.753 34.715C165.936 35.0354 166.173 35.2773 166.466 35.4408C166.766 35.5978 167.091 35.6762 167.443 35.6762ZM172.058 31.7919C172.208 31.4584 172.436 31.2001 172.742 31.017C173.054 30.8339 173.435 30.7423 173.884 30.7423V31.4584H173.699C173.204 31.4584 172.807 31.5925 172.507 31.8606C172.208 32.1287 172.058 32.5766 172.058 33.2044V36.1961H171.375V30.8404H172.058V31.7919ZM182.661 29.3397V36.1961H181.977V32.9886H178.276V36.1961H177.592V29.3397H178.276V32.4197H181.977V29.3397H182.661ZM189.045 33.2436C189.045 33.479 189.038 33.6588 189.025 33.7831H184.601C184.621 34.1885 184.719 34.5351 184.894 34.8229C185.07 35.1106 185.301 35.3297 185.588 35.48C185.874 35.6239 186.187 35.6958 186.525 35.6958C186.968 35.6958 187.339 35.5879 187.639 35.3722C187.944 35.1564 188.146 34.8653 188.244 34.4992H188.967C188.837 35.0223 188.557 35.4506 188.127 35.7841C187.704 36.111 187.17 36.2746 186.525 36.2746C186.024 36.2746 185.575 36.1635 185.178 35.9411C184.78 35.7122 184.468 35.3918 184.24 34.9798C184.019 34.5613 183.908 34.0741 183.908 33.5183C183.908 32.9624 184.019 32.4753 184.24 32.0567C184.462 31.6382 184.771 31.3178 185.168 31.0955C185.565 30.8731 186.018 30.762 186.525 30.762C187.033 30.762 187.476 30.8731 187.853 31.0955C188.237 31.3178 188.53 31.6186 188.732 31.9979C188.941 32.3706 189.045 32.7859 189.045 33.2436ZM188.352 33.224C188.358 32.8251 188.277 32.4851 188.107 32.2039C187.944 31.9227 187.72 31.7102 187.434 31.5663C187.147 31.4224 186.835 31.3505 186.496 31.3505C185.988 31.3505 185.555 31.514 185.197 31.8409C184.839 32.1679 184.641 32.6289 184.601 33.224H188.352ZM189.983 33.5085C189.983 32.9592 190.091 32.4785 190.305 32.0665C190.527 31.648 190.83 31.3276 191.214 31.1053C191.604 30.8764 192.044 30.762 192.532 30.762C193.04 30.762 193.476 30.8797 193.841 31.1151C194.212 31.3505 194.478 31.6513 194.641 32.0175V30.8404H195.325V36.1961H194.641V35.0092C194.472 35.3754 194.202 35.6795 193.831 35.9215C193.466 36.1569 193.03 36.2746 192.522 36.2746C192.041 36.2746 191.604 36.16 191.214 35.9313C190.83 35.7024 190.527 35.3787 190.305 34.9602C190.091 34.5416 189.983 34.0578 189.983 33.5085ZM194.641 33.5183C194.641 33.0867 194.553 32.7074 194.378 32.3804C194.202 32.0535 193.961 31.8017 193.655 31.6251C193.355 31.4486 193.023 31.3603 192.659 31.3603C192.281 31.3603 191.943 31.4453 191.643 31.6153C191.344 31.7853 191.106 32.0339 190.93 32.3608C190.761 32.6812 190.676 33.0638 190.676 33.5085C190.676 33.9466 190.761 34.3324 190.93 34.6659C191.106 34.9929 191.344 35.2446 191.643 35.4212C191.943 35.5912 192.281 35.6762 192.659 35.6762C193.023 35.6762 193.355 35.5879 193.655 35.4114C193.961 35.2348 194.202 34.983 194.378 34.6561C194.553 34.3291 194.641 33.9499 194.641 33.5183ZM197.569 28.9375V36.1961H196.886V28.9375H197.569ZM200.006 31.4192V34.7444C200.006 35.0713 200.068 35.2969 200.191 35.4212C200.315 35.5455 200.533 35.6076 200.846 35.6076H201.471V36.1961H200.738C200.257 36.1961 199.898 36.085 199.664 35.8626C199.43 35.6337 199.312 35.261 199.312 34.7444V31.4192H198.57V30.8404H199.312V29.4966H200.006V30.8404H201.471V31.4192H200.006ZM205.137 30.7423C205.541 30.7423 205.902 30.8274 206.221 30.9974C206.547 31.1674 206.801 31.429 206.983 31.7821C207.172 32.1287 207.266 32.5537 207.266 33.0572V36.1961H206.592V33.1357C206.592 32.5537 206.446 32.109 206.153 31.8017C205.866 31.4944 205.473 31.3407 204.971 31.3407C204.457 31.3407 204.047 31.5042 203.741 31.8311C203.435 32.1581 203.282 32.6387 203.282 33.273V36.1961H202.598V28.9375H203.282V31.7527C203.451 31.4322 203.698 31.1837 204.024 31.0072C204.356 30.8306 204.727 30.7423 205.137 30.7423ZM212.088 32.2725V32.8513H208.29V32.2725H212.088ZM217.836 29.3397V29.9086H215.942V36.1961H215.258V29.9086H213.354V29.3397H217.836ZM223.74 33.2436C223.74 33.479 223.733 33.6588 223.721 33.7831H219.297C219.316 34.1885 219.414 34.5351 219.59 34.8229C219.765 35.1106 219.996 35.3297 220.283 35.48C220.569 35.6239 220.882 35.6958 221.22 35.6958C221.663 35.6958 222.034 35.5879 222.334 35.3722C222.64 35.1564 222.842 34.8653 222.939 34.4992H223.662C223.531 35.0223 223.252 35.4506 222.822 35.7841C222.399 36.111 221.865 36.2746 221.22 36.2746C220.719 36.2746 220.27 36.1635 219.873 35.9411C219.476 35.7122 219.163 35.3918 218.935 34.9798C218.714 34.5613 218.603 34.0741 218.603 33.5183C218.603 32.9624 218.714 32.4753 218.935 32.0567C219.156 31.6382 219.466 31.3178 219.863 31.0955C220.26 30.8731 220.713 30.762 221.22 30.762C221.728 30.762 222.171 30.8731 222.549 31.0955C222.933 31.3178 223.226 31.6186 223.428 31.9979C223.636 32.3706 223.74 32.7859 223.74 33.2436ZM223.047 33.224C223.053 32.8251 222.972 32.4851 222.803 32.2039C222.64 31.9227 222.415 31.7102 222.129 31.5663C221.842 31.4224 221.529 31.3505 221.191 31.3505C220.683 31.3505 220.25 31.514 219.892 31.8409C219.534 32.1679 219.336 32.6289 219.297 33.224H223.047ZM224.678 33.5183C224.678 32.9624 224.789 32.4785 225.01 32.0665C225.231 31.648 225.538 31.3276 225.928 31.1053C226.319 30.8764 226.765 30.762 227.266 30.762C227.924 30.762 228.464 30.9255 228.887 31.2524C229.317 31.5794 229.594 32.0241 229.717 32.5864H228.985C228.894 32.2006 228.695 31.8998 228.389 31.684C228.09 31.4617 227.715 31.3505 227.266 31.3505C226.908 31.3505 226.586 31.4322 226.299 31.5957C226.013 31.7592 225.785 32.0044 225.616 32.3314C225.453 32.6518 225.372 33.0474 225.372 33.5183C225.372 33.9891 225.453 34.388 225.616 34.715C225.785 35.0419 226.013 35.2871 226.299 35.4506C226.586 35.6141 226.908 35.6958 227.266 35.6958C227.715 35.6958 228.09 35.5879 228.389 35.3722C228.695 35.1498 228.894 34.8425 228.985 34.4501H229.717C229.594 34.9994 229.317 35.4408 228.887 35.7743C228.458 36.1078 227.917 36.2746 227.266 36.2746C226.765 36.2746 226.319 36.1635 225.928 35.9411C225.538 35.7122 225.231 35.3918 225.01 34.9798C224.789 34.5613 224.678 34.0741 224.678 33.5183ZM233.519 30.7423C233.923 30.7423 234.284 30.8274 234.603 30.9974C234.928 31.1674 235.182 31.429 235.365 31.7821C235.553 32.1287 235.648 32.5537 235.648 33.0572V36.1961H234.974V33.1357C234.974 32.5537 234.828 32.109 234.535 31.8017C234.248 31.4944 233.854 31.3407 233.353 31.3407C232.839 31.3407 232.428 31.5042 232.123 31.8311C231.816 32.1581 231.664 32.6387 231.664 33.273V36.1961H230.98V28.9375H231.664V31.7527C231.833 31.4322 232.08 31.1837 232.406 31.0072C232.738 30.8306 233.109 30.7423 233.519 30.7423ZM237.277 36.2451C237.134 36.2451 237.013 36.1961 236.915 36.098C236.824 35.9999 236.779 35.8791 236.779 35.7351C236.779 35.5912 236.824 35.4735 236.915 35.382C237.013 35.2839 237.134 35.2348 237.277 35.2348C237.413 35.2348 237.527 35.2839 237.619 35.382C237.716 35.4735 237.765 35.5912 237.765 35.7351C237.765 35.8791 237.716 35.9999 237.619 36.098C237.527 36.1961 237.413 36.2451 237.277 36.2451Z" fill="#00B1FF">
</path>
<path d="M59.5938 13.1851C59.5938 11.6367 59.9488 10.2477 60.6593 9.01806C61.3847 7.78844 62.3595 6.83207 63.5837 6.14895C64.8229 5.45066 66.1758 5.1015 67.6417 5.1015C69.3194 5.1015 70.8079 5.51897 72.1078 6.35389C73.4227 7.17363 74.3749 8.34254 74.9643 9.86058H71.8584C71.4504 9.02566 70.8836 8.40325 70.1582 7.99338C69.4327 7.58351 68.5939 7.37857 67.6417 7.37857C66.5989 7.37857 65.6694 7.61388 64.8533 8.08446C64.0372 8.55504 63.3947 9.2306 62.9263 10.1111C62.4729 10.9915 62.2462 12.0162 62.2462 13.1851C62.2462 14.354 62.4729 15.3787 62.9263 16.2591C63.3947 17.1396 64.0372 17.8227 64.8533 18.3085C65.6694 18.7791 66.5989 19.0144 67.6417 19.0144C68.5939 19.0144 69.4327 18.8095 70.1582 18.3996C70.8836 17.9897 71.4504 17.3673 71.8584 16.5324H74.9643C74.3749 18.0504 73.4227 19.2193 72.1078 20.0391C70.8079 20.8588 69.3194 21.2687 67.6417 21.2687C66.1605 21.2687 64.8079 20.9271 63.5837 20.244C62.3595 19.5457 61.3847 18.5818 60.6593 17.3521C59.9488 16.1225 59.5938 14.7335 59.5938 13.1851ZM77.1277 14.8018C77.1277 13.5418 77.3848 12.4261 77.8985 11.4545C78.4276 10.483 79.1381 9.73155 80.0296 9.20023C80.9364 8.65373 81.9339 8.38048 83.0221 8.38048C84.0046 8.38048 84.8584 8.57782 85.5838 8.97252C86.3246 9.35202 86.914 9.8302 87.3521 10.4071V8.58542H89.9592V21.1321H87.3521V19.2649C86.914 19.8569 86.3169 20.3503 85.5611 20.745C84.8057 21.1397 83.9442 21.337 82.9767 21.337C81.9039 21.337 80.9214 21.0638 80.0296 20.5173C79.1381 19.9556 78.4276 19.1814 77.8985 18.1947C77.3848 17.1927 77.1277 16.0618 77.1277 14.8018ZM87.3521 14.8474C87.3521 13.9821 87.1707 13.2306 86.808 12.5931C86.4606 11.9555 85.9995 11.4697 85.4251 11.1357C84.851 10.8018 84.2313 10.6348 83.5661 10.6348C82.9014 10.6348 82.2816 10.8018 81.7072 11.1357C81.1331 11.4545 80.6643 11.9327 80.3016 12.5703C79.9542 13.1927 79.7802 13.9365 79.7802 14.8018C79.7802 15.6671 79.9542 16.4261 80.3016 17.0789C80.6643 17.7316 81.1331 18.2326 81.7072 18.5818C82.2966 18.9157 82.9164 19.0827 83.5661 19.0827C84.2313 19.0827 84.851 18.9157 85.4251 18.5818C85.9995 18.2478 86.4606 17.762 86.808 17.1244C87.1707 16.4717 87.3521 15.7126 87.3521 14.8474ZM95.9383 10.4071C96.316 9.76949 96.8147 9.27614 97.4345 8.92698C98.0693 8.56265 98.8174 8.38048 99.6789 8.38048V11.0674H99.0214C98.0089 11.0674 97.2381 11.3255 96.7091 11.8416C96.1953 12.3578 95.9383 13.2534 95.9383 14.5286V21.1321H93.3538V8.58542H95.9383V10.4071ZM101.193 14.8018C101.193 13.5418 101.45 12.4261 101.964 11.4545C102.493 10.483 103.203 9.73155 104.095 9.20023C105.002 8.65373 106.007 8.38048 107.11 8.38048C107.926 8.38048 108.727 8.56265 109.513 8.92698C110.314 9.27614 110.949 9.74672 111.417 10.3388V4.28175H114.024V21.1321H111.417V19.2421C110.994 19.8493 110.405 20.3503 109.649 20.745C108.909 21.1397 108.055 21.337 107.087 21.337C105.999 21.337 105.002 21.0638 104.095 20.5173C103.203 19.9556 102.493 19.1814 101.964 18.1947C101.45 17.1927 101.193 16.0618 101.193 14.8018ZM111.417 14.8474C111.417 13.9821 111.236 13.2306 110.873 12.5931C110.526 11.9555 110.065 11.4697 109.49 11.1357C108.916 10.8018 108.296 10.6348 107.631 10.6348C106.967 10.6348 106.347 10.8018 105.772 11.1357C105.198 11.4545 104.729 11.9327 104.367 12.5703C104.019 13.1927 103.845 13.9365 103.845 14.8018C103.845 15.6671 104.019 16.4261 104.367 17.0789C104.729 17.7316 105.198 18.2326 105.772 18.5818C106.362 18.9157 106.982 19.0827 107.631 19.0827C108.296 19.0827 108.916 18.9157 109.49 18.5818C110.065 18.2478 110.526 17.762 110.873 17.1244C111.236 16.4717 111.417 15.7126 111.417 14.8474ZM118.734 6.92316C118.265 6.92316 117.872 6.76376 117.555 6.44497C117.238 6.12618 117.079 5.73148 117.079 5.26089C117.079 4.79031 117.238 4.39561 117.555 4.07682C117.872 3.75803 118.265 3.59863 118.734 3.59863C119.187 3.59863 119.573 3.75803 119.89 4.07682C120.207 4.39561 120.366 4.79031 120.366 5.26089C120.366 5.73148 120.207 6.12618 119.89 6.44497C119.573 6.76376 119.187 6.92316 118.734 6.92316ZM120.003 8.58542V21.1321H117.419V8.58542H120.003ZM129.699 8.38048C130.681 8.38048 131.558 8.58542 132.329 8.99529C133.115 9.40516 133.727 10.0124 134.165 10.8169C134.603 11.6215 134.823 12.5931 134.823 13.7316V21.1321H132.261V14.1187C132.261 12.9953 131.981 12.1376 131.422 11.5456C130.863 10.9384 130.099 10.6348 129.132 10.6348C128.165 10.6348 127.394 10.9384 126.82 11.5456C126.26 12.1376 125.981 12.9953 125.981 14.1187V21.1321H123.397V8.58542H125.981V10.02C126.404 9.50385 126.941 9.10154 127.591 8.81312C128.255 8.52471 128.958 8.38048 129.699 8.38048ZM137.258 14.8018C137.258 13.5418 137.514 12.4261 138.028 11.4545C138.557 10.483 139.268 9.73155 140.16 9.20023C141.066 8.65373 142.064 8.38048 143.152 8.38048C144.134 8.38048 144.988 8.57782 145.714 8.97252C146.454 9.35202 147.044 9.8302 147.482 10.4071V8.58542H150.089V21.1321H147.482V19.2649C147.044 19.8569 146.447 20.3503 145.691 20.745C144.935 21.1397 144.074 21.337 143.107 21.337C142.033 21.337 141.051 21.0638 140.16 20.5173C139.268 19.9556 138.557 19.1814 138.028 18.1947C137.514 17.1927 137.258 16.0618 137.258 14.8018ZM147.482 14.8474C147.482 13.9821 147.301 13.2306 146.938 12.5931C146.59 11.9555 146.129 11.4697 145.555 11.1357C144.981 10.8018 144.361 10.6348 143.696 10.6348C143.031 10.6348 142.411 10.8018 141.837 11.1357C141.263 11.4545 140.794 11.9327 140.432 12.5703C140.084 13.1927 139.91 13.9365 139.91 14.8018C139.91 15.6671 140.084 16.4261 140.432 17.0789C140.794 17.7316 141.263 18.2326 141.837 18.5818C142.427 18.9157 143.046 19.0827 143.696 19.0827C144.361 19.0827 144.981 18.9157 145.555 18.5818C146.129 18.2478 146.59 17.762 146.938 17.1244C147.301 16.4717 147.482 15.7126 147.482 14.8474ZM156.068 4.28175V21.1321H153.483V4.28175H156.068Z" fill="#00B1FF">
</path></g>
<defs><clipPath id="clip0_121_965"><rect width="238.562" height="55" fill="white" transform="translate(0 0.813477)"></rect></clipPath></defs></svg>