<svg width="286" height="115" viewBox="0 0 286 115" fill="none" xmlns="http://www.w3.org/2000/svg">
<g clip-path="url(#clip0_2415_60104)">
<path d="M156.9 112.4V106.3C154.8 108.5 152.3 110.3 149.2 111.6C146.2 112.9 142.8 113.5 139 113.5C135.4 113.5 132.2 112.9 129.2 111.7C126.3 110.5 123.8 108.8 121.7 106.7C119.6 104.5 118 102 116.9 98.9C115.8 95.9 115.2 92.5 115.2 88.7V51H131.7V85.8C131.7 89.5 132.7 92.4 134.7 94.7C136.7 97 139.5 98.1 143.1 98.1C147.2 98.1 150.4 96.9 152.9 94.5C155.4 92.1 156.6 88.8 156.6 84.4V51H173.3V112.4H156.9Z" fill="#1B2033"/>
<path d="M185 112.4V51H201.6V59.4C203.7 56.6 206.2 54.4 209.2 52.7C212.2 51 215.6 50.2 219.4 50.2V67C213.3 67 208.8 68.5999 205.9 71.6999C203.1 74.8999 201.7 79.1 201.7 84.5V112.5L185 112.4Z" fill="#1B2033"/>
<path d="M283.6 100C280.6 104.5 276.7 108.1 271.9 110.7C267.1 113.3 261.3 114.6 254.5 114.6C249.6 114.6 245.1 113.8 241.2 112.1C237.3 110.5 233.9 108.2 231 105.4C228.2 102.6 226 99.2 224.5 95.3C223 91.4 222.2 87.2 222.2 82.6C222.2 78.2 223 74.1 224.6 70.2C226.2 66.3 228.4 62.9 231.3 60C234.2 57.1 237.6 54.8 241.6 53.1C245.6 51.4 250 50.6 254.8 50.6C259.7 50.6 264 51.4 267.8 53C271.6 54.6 274.9 56.8 277.5 59.6C280.2 62.4 282.2 65.7 283.6 69.5C285 73.3 285.7 77.4 285.7 81.9C285.7 83.1 285.7 84.3 285.6 85.6C285.5 86.9 285.5 87.6 285.5 87.8L238.6 87.7C239.5 91.6 241.3 94.7 244.2 97C247 99.3 250.6 100.5 254.9 100.5C258.7 100.5 261.9 99.8 264.5 98.3C267.2 96.8 269.4 94.9 271.2 92.4L283.6 100ZM254.6 64.2C250.7 64.2 247.4 65.2 244.8 67.1C242.2 69.1 240.3 71.8 239.2 75.3H269C268.1 71.6 266.3 68.8 263.6 66.9C261 65.1 258 64.2 254.6 64.2Z" fill="#1B2033"/>
<path d="M16.6 53H0V114.4H16.6V53Z" fill="#1B2033"/>
<path d="M68.4 46C64.9 46 61.7 46.7 58.7 48C55.7 49.3 53.2 51.1 51 53.4C48.7999 55.7 47.1 58.3 45.9 61.4C44.7 64.5 44 67.8 44 71.3C44 74.9 44.6 78.2 45.9 81.4C47.1 84.5 48.8999 87.2 51.0999 89.5C53.2999 91.8 55.9999 93.6 59.0999 94.9C62.1999 96.2 65.5 96.9 69.0999 96.9C74.0999 96.9 78.5 95.7 82.3 93.3C86.1 90.9 89.1 87.7 91.5 83.6L106 93.7C102 100.2 97 105.2 91 108.8C85 112.4 77.7999 114.2 69.4 114.2C63.1 114.2 57.3 113.1 51.9 110.9C46.5 108.7 41.8 105.7 37.9 101.8C34 97.9 30.9 93.4 28.6 88.2C26.4 83 25.2 77.4 25.2 71.4C25.2 65.4 26.3 59.8 28.6 54.7C30.8 49.6 33.9 45.1 37.7999 41.2C41.6999 37.4 46.2999 34.4 51.5999 32.2C56.8999 30 62.7 28.9 69 28.9C77.1 28.9 84.2 30.8 90.5 33.9C96.5 36.9 104.3 41.8 109.1 53.1L94.3999 63.3C91.9999 59.3 85.5999 52.3 82 49.8C78.0999 47.2 73.7 46 68.4 46Z" fill="#00B1FF"/>
<path d="M72.9 19H65.3V40.2H72.9V19Z" fill="#00B1FF"/>
<path d="M69.0999 21.8C75.1199 21.8 80 16.9199 80 10.9C80 4.8801 75.1199 0 69.0999 0C63.08 0 58.2 4.8801 58.2 10.9C58.2 16.9199 63.08 21.8 69.0999 21.8Z" fill="#00B1FF"/>
<path d="M78.6 71.7C82.6317 71.7 85.9 68.3869 85.9 64.3C85.9 60.2131 82.6317 56.9 78.6 56.9C74.5684 56.9 71.3 60.2131 71.3 64.3C71.3 68.3869 74.5684 71.7 78.6 71.7Z" fill="#1B2033"/>
<path d="M60.4001 71.7C64.4318 71.7 67.7001 68.3869 67.7001 64.3C67.7001 60.2131 64.4318 56.9 60.4001 56.9C56.3684 56.9 53.1001 60.2131 53.1001 64.3C53.1001 68.3869 56.3684 71.7 60.4001 71.7Z" fill="#1B2033"/>
<path d="M62.3001 62.1C63.3495 62.1 64.2001 61.2494 64.2001 60.2001C64.2001 59.1507 63.3495 58.3 62.3001 58.3C61.2508 58.3 60.4001 59.1507 60.4001 60.2001C60.4001 61.2494 61.2508 62.1 62.3001 62.1Z" fill="white"/>
<path d="M81.4 62.1C82.4493 62.1 83.3 61.2494 83.3 60.2001C83.3 59.1507 82.4493 58.3 81.4 58.3C80.3507 58.3 79.5 59.1507 79.5 60.2001C79.5 61.2494 80.3507 62.1 81.4 62.1Z" fill="white"/>
</g>
<defs>
<clipPath id="clip0_2415_60104">
<rect width="285.7" height="114.6" fill="white"/>
</clipPath>
</defs>
</svg>
